<svg version="1.0" id="Camada_1" x="0" y="0" viewBox="0 0 120 120" xmlns="http://www.w3.org/2000/svg" width="120" height="120">
	<g id="_100_milhões" transform="translate(2 2)">
		<g id="BG" fill="none" stroke-miterlimit="10">
			<circle id="Oval" cx="57.8" cy="57.6" r="58" opacity=".4" stroke="#d0edfc" stroke-width="4">
			</circle>
			<circle id="Oval-2" cx="57.2" cy="57.7" r="46" stroke="#1dacfc" stroke-dasharray="290" stroke-width="6" stroke-dashoffset="0">
			</circle>
		</g>
		<g id="Text">
			<g class="st2">
				<path class="st3" d="M42.1 48.7v6.7h-.7v-6.1h-1.6v-.6h2.3zM43.7 52c0-2.1 1.1-3.4 2.7-3.4S49 49.9 49 52c0 2.1-1.1 3.4-2.7 3.4s-2.6-1.2-2.6-3.4zm4.6 0c0-1.8-.8-2.8-2-2.8s-2 1-2 2.8.8 2.8 2 2.8 2-1 2-2.8zM50 52c0-2.1 1.1-3.4 2.7-3.4s2.7 1.3 2.7 3.4c0 2.1-1.1 3.4-2.7 3.4S50 54.2 50 52zm4.7 0c0-1.8-.8-2.8-2-2.8s-2 1-2 2.8.8 2.8 2 2.8 2-1 2-2.8zM67.6 52.5v2.9h-.7v-2.8c0-1.1-.5-1.6-1.4-1.6-1 0-1.7.7-1.7 1.8v2.6h-.7v-2.8c0-1.1-.5-1.6-1.5-1.6s-1.7.7-1.7 1.8v2.6h-.7v-5h.8v.9c.4-.6 1-1 1.8-1s1.5.4 1.8 1.1c.4-.6 1.1-1.1 2-1.1 1.2 0 2 .7 2 2.2zM69.3 48.8c0-.3.2-.5.5-.5s.5.2.5.5-.2.5-.5.5c-.3-.1-.5-.3-.5-.5zm.1 1.5h.7v5h-.7v-5zM72 48.3h.7v7.1H72v-7.1z">
				</path>
			</g>
			<g class="st2">
				<path class="st3" d="M22 60.3h.7V67H22v-6.7zM29.4 64.1V67h-.7v-2.8c0-1.1-.6-1.6-1.5-1.6-1.1 0-1.8.7-1.8 1.8V67h-.7v-5h.6v.9c.4-.6 1-1 1.9-1 1.4.1 2.2.8 2.2 2.2zM32.9 59.9c.4 0 .8.1 1 .3l-.2.5c-.2-.2-.5-.2-.7-.2-.6 0-.9.3-.9.9v.6h1.5v.6H32V67h-.7v-4.5h-.9V62h.9v-.6c.1-.9.6-1.5 1.6-1.5zm2.3 0V67h-.7v-7.1h.7zM41.6 62v5H41v-.9c-.4.6-1 1-1.8 1-1.3 0-2.1-.7-2.1-2.2V62h.7v2.8c0 1.1.6 1.6 1.5 1.6 1.1 0 1.7-.7 1.7-1.8V62h.6zM47.9 64.7h-4.2c.1 1.1.9 1.7 2 1.7.6 0 1.2-.2 1.5-.7l.4.4c-.4.5-1.1.8-1.9.8-1.6 0-2.6-1.1-2.6-2.6s1-2.6 2.5-2.6c1.4 0 2.4 1 2.4 2.6-.1.3-.1.3-.1.4zm-4.2-.5h3.6c-.1-1-.8-1.7-1.8-1.7s-1.7.7-1.8 1.7zM53.9 64.1V67h-.7v-2.8c0-1.1-.6-1.6-1.5-1.6-1.1 0-1.8.7-1.8 1.8V67h-.7v-5h.6v.9c.4-.6 1-1 1.9-1 1.3.1 2.2.8 2.2 2.2zM55.3 64.5c0-1.5 1.1-2.6 2.6-2.6.9 0 1.6.3 2 1l-.5.3c-.3-.5-.9-.7-1.5-.7-1.1 0-1.9.8-1.9 2s.8 2 1.9 2c.6 0 1.1-.2 1.5-.7l.5.3c-.4.6-1.1 1-2 1-1.6 0-2.6-1.1-2.6-2.6zM61 60.4c0-.3.2-.5.5-.5s.5.2.5.5-.2.5-.5.5-.5-.2-.5-.5zm.1 1.6h.7v5h-.7v-5zM67.5 63.9V67h-.6v-.8c-.3.5-.9.8-1.7.8-1.1 0-1.8-.6-1.8-1.5 0-.8.5-1.4 1.9-1.4h1.6v-.3c0-.9-.5-1.3-1.4-1.3-.6 0-1.3.2-1.7.6l-.3-.5c.5-.4 1.3-.7 2-.7 1.3.1 2 .7 2 2zm-.7 1.6v-.8h-1.6c-1 0-1.3.4-1.3.9 0 .6.5.9 1.3.9s1.4-.3 1.6-1zM74 59.9V67h-.6v-1c-.4.7-1.1 1-1.9 1-1.4 0-2.5-1-2.5-2.6 0-1.5 1.1-2.6 2.5-2.6.8 0 1.5.3 1.9 1v-3h.6zm-.7 4.6c0-1.2-.8-2-1.9-2-1.1 0-1.9.8-1.9 2s.8 2 1.9 2c1.1 0 1.9-.8 1.9-2zM75.3 64.5c0-1.5 1.1-2.6 2.6-2.6s2.6 1.1 2.6 2.6-1.1 2.6-2.6 2.6-2.6-1.1-2.6-2.6zm4.5 0c0-1.2-.8-2-1.9-2-1.1 0-1.9.8-1.9 2s.8 2 1.9 2c1.1 0 1.9-.8 1.9-2zM84.4 62v.7h-.2c-1.1 0-1.7.7-1.7 1.9V67h-.7v-5h.6v1c.4-.7 1-1 2-1zM89.9 64.7h-4.2c.1 1.1.9 1.7 2 1.7.6 0 1.2-.2 1.5-.7l.4.4c-.4.5-1.1.8-1.9.8-1.6 0-2.6-1.1-2.6-2.6s1-2.6 2.5-2.6c1.4 0 2.4 1 2.4 2.6-.1.3-.1.3-.1.4zm-4.2-.5h3.6c-.1-1-.8-1.7-1.8-1.7s-1.7.7-1.8 1.7zM90.6 66.4l.3-.5c.4.3 1.1.6 1.8.6 1 0 1.3-.3 1.3-.8 0-1.3-3.3-.3-3.3-2.3 0-.8.7-1.4 2-1.4.6 0 1.4.2 1.8.5l-.2.5c-.4-.3-1-.4-1.5-.4-.9 0-1.3.4-1.3.8 0 1.4 3.3.3 3.3 2.3 0 .9-.8 1.4-2.1 1.4-.9 0-1.7-.3-2.1-.7z">
				</path>
			</g>
		</g>
	</g>
</svg>
