<svg version="1.0" id="Camada_1" x="0" y="0" viewBox="0 0 120 120" xmlns="http://www.w3.org/2000/svg" width="120" height="120">
	<g id="_100_milhões" transform="translate(2 2)">
		<g id="BG" fill="none" stroke-miterlimit="10">
			<circle id="Oval" cx="58" cy="58" r="58" opacity=".4" stroke="#d0edfc" stroke-width="4">
			</circle>
			<circle id="Oval-2" cx="57.4" cy="58.1" r="46" stroke="#1dacfc" stroke-dasharray="290" stroke-width="6" stroke-dashoffset="0">
			</circle>
		</g>
		<g>
			<path d="M30.8 49.3V56h-.7v-6.1h-1.6v-.6h2.3zM32.4 52.6c0-2.1 1.1-3.4 2.7-3.4 1.5 0 2.7 1.3 2.7 3.4S36.6 56 35.1 56c-1.6 0-2.7-1.3-2.7-3.4zm4.6 0c0-1.8-.8-2.8-2-2.8s-2 1-2 2.8.8 2.8 2 2.8 2-1 2-2.8zM38.7 52.6c0-2.1 1.1-3.4 2.7-3.4 1.5 0 2.7 1.3 2.7 3.4S42.9 56 41.4 56c-1.6 0-2.7-1.3-2.7-3.4zm4.7 0c0-1.8-.8-2.8-2-2.8s-2 1-2 2.8.8 2.8 2 2.8 2-1 2-2.8zM56.2 53v2.9h-.7v-2.8c0-1.1-.5-1.6-1.4-1.6-1 0-1.7.7-1.7 1.8v2.6h-.7v-2.8c0-1.1-.5-1.6-1.4-1.6-1 0-1.7.7-1.7 1.8v2.6H48v-5h.6v.9c.4-.6 1-1 1.8-1s1.5.4 1.8 1.1c.4-.6 1.1-1.1 2-1.1 1.2.1 2 .8 2 2.2zM57.9 49.4c0-.3.2-.5.5-.5s.5.2.5.5-.2.5-.5.5c-.3-.1-.5-.3-.5-.5zm.2 1.5h.7v5h-.7v-5zM60.6 48.9h.7V56h-.7v-7.1zM67.8 53v2.9h-.7v-2.8c0-1.1-.6-1.6-1.5-1.6-1.1 0-1.8.7-1.8 1.8v2.6h-.7v-7.1h.7v2.9c.4-.6 1-.9 1.9-.9 1.3.1 2.1.8 2.1 2.2zM69.2 53.4c0-1.5 1.1-2.5 2.6-2.5s2.5 1.1 2.5 2.5-1.1 2.6-2.6 2.6-2.5-1.1-2.5-2.6zm4.4 0c0-1.2-.8-2-1.9-2s-1.9.8-1.9 2 .8 2 1.9 2 1.9-.8 1.9-2zm-2.5-3.9c-.3 0-.5.2-.5.6h-.4c0-.6.4-1 .9-1 .6 0 .9.6 1.2.6.3 0 .5-.2.5-.6h.4c0 .6-.4 1-.9 1s-.8-.6-1.2-.6zM80 53.7h-4.2c.1 1 .9 1.7 2 1.7.6 0 1.2-.2 1.5-.7l.4.4c-.4.5-1.1.8-1.9.8-1.6 0-2.6-1.1-2.6-2.6s1-2.5 2.4-2.5 2.4 1 2.4 2.5v.4zm-4.2-.5h3.6c-.1-1-.8-1.7-1.8-1.7s-1.7.7-1.8 1.7zM80.7 55.4l.3-.5c.4.3 1.1.6 1.8.6 1 0 1.3-.3 1.3-.8 0-1.3-3.2-.3-3.2-2.3 0-.8.7-1.4 2-1.4.6 0 1.4.2 1.8.5l-.3.5c-.4-.3-1-.4-1.5-.4-.9 0-1.3.4-1.3.8 0 1.4 3.2.3 3.2 2.3 0 .9-.8 1.4-2.1 1.4-.8-.1-1.6-.4-2-.7z">
			</path>
		</g>
		<g>
			<path d="M24.2 59.8v6.5h-.6v-.9c-.4.6-1 1-1.8 1-1.3 0-2.3-1-2.3-2.3 0-1.4 1-2.3 2.3-2.3.7 0 1.4.3 1.7.9v-2.8h.7zm-.6 4.1c0-1.1-.7-1.8-1.7-1.8s-1.7.7-1.7 1.8.7 1.8 1.7 1.8 1.7-.7 1.7-1.8zM29.9 64.1h-3.8c.1 1 .8 1.6 1.8 1.6.6 0 1.1-.2 1.4-.6l.3.4c-.4.5-1 .8-1.8.8-1.4 0-2.4-1-2.4-2.3 0-1.4 1-2.3 2.2-2.3s2.2 1 2.2 2.3c.1 0 .1.1.1.1zm-3.8-.4h3.3c-.1-.9-.7-1.5-1.6-1.5-1-.1-1.6.6-1.7 1.5zM33 63.9c0-1.4 1-2.3 2.4-2.3.8 0 1.4.3 1.8.9l-.5.3c-.3-.5-.8-.7-1.3-.7-1 0-1.7.7-1.7 1.8s.7 1.8 1.7 1.8c.5 0 1-.2 1.3-.7l.5.3c-.4.6-1 .9-1.8.9-1.4.1-2.4-.9-2.4-2.3zM37.8 63.9c0-1.4 1-2.3 2.3-2.3 1.3 0 2.3 1 2.3 2.3 0 1.4-1 2.3-2.3 2.3-1.3.1-2.3-.9-2.3-2.3zm4.1 0c0-1.1-.7-1.8-1.7-1.8s-1.7.7-1.7 1.8.7 1.8 1.7 1.8 1.7-.7 1.7-1.8zM48 63.6v2.7h-.6v-2.6c0-1-.5-1.5-1.4-1.5-1 0-1.6.6-1.6 1.7v2.4h-.6v-4.6h.6v.8c.3-.6 1-.9 1.7-.9 1.1 0 1.9.7 1.9 2zM49 65.7l.3-.5c.4.3 1 .5 1.6.5.9 0 1.2-.3 1.2-.8 0-1.2-3-.3-3-2.1 0-.8.6-1.3 1.8-1.3.6 0 1.2.2 1.6.4l-.3.5c-.4-.3-.9-.4-1.4-.4-.8 0-1.2.3-1.2.8 0 1.2 3 .3 3 2.1 0 .8-.7 1.3-1.9 1.3-.5.1-1.3-.2-1.7-.5zM58.1 61.6v4.6h-.6v-.8c-.3.6-.9.9-1.6.9-1.2 0-1.9-.7-1.9-2v-2.7h.6v2.6c0 1 .5 1.5 1.4 1.5 1 0 1.6-.6 1.6-1.7v-2.4h.5zM67.4 63.6v2.7h-.6v-2.6c0-1-.5-1.5-1.3-1.5-.9 0-1.5.6-1.5 1.7v2.4h-.6v-2.6c0-1-.5-1.5-1.3-1.5-.9 0-1.5.6-1.5 1.7v2.4H60v-4.6h.6v.8c.3-.5.9-.9 1.7-.9.8 0 1.4.3 1.6 1 .3-.6 1-1 1.8-1 1 0 1.7.7 1.7 2zM68.9 60.2c0-.2.2-.4.5-.4s.5.2.5.4c0 .3-.2.5-.5.5-.3-.1-.5-.3-.5-.5zm.2 1.4h.6v4.6h-.6v-4.6zM75.6 59.8v6.5H75v-.9c-.4.6-1 1-1.8 1-1.3 0-2.3-1-2.3-2.3 0-1.4 1-2.3 2.3-2.3.7 0 1.4.3 1.7.9v-2.8h.7zm-.6 4.1c0-1.1-.7-1.8-1.7-1.8s-1.7.7-1.7 1.8.7 1.8 1.7 1.8S75 65 75 63.9zM76.9 63.9c0-1.4 1-2.3 2.3-2.3 1.3 0 2.3 1 2.3 2.3 0 1.4-1 2.3-2.3 2.3-1.3.1-2.3-.9-2.3-2.3zm4 0c0-1.1-.7-1.8-1.7-1.8s-1.7.7-1.7 1.8.7 1.8 1.7 1.8 1.7-.7 1.7-1.8zM85.1 61.6v.6H85c-1 0-1.5.6-1.5 1.7v2.3h-.6v-4.6h.6v.9c.2-.6.8-.9 1.6-.9zM90.2 64.1h-3.8c.1 1 .8 1.6 1.8 1.6.6 0 1.1-.2 1.4-.6l.3.4c-.4.5-1 .8-1.8.8-1.4 0-2.4-1-2.4-2.3 0-1.4 1-2.3 2.2-2.3 1.3 0 2.2 1 2.2 2.3.1 0 .1.1.1.1zm-3.9-.4h3.3c-.1-.9-.7-1.5-1.6-1.5-.9-.1-1.6.6-1.7 1.5zM90.8 65.7l.3-.5c.4.3 1 .5 1.6.5.9 0 1.2-.3 1.2-.8 0-1.2-3-.3-3-2.1 0-.8.6-1.3 1.8-1.3.6 0 1.2.2 1.6.4l-.3.5c-.4-.3-.9-.4-1.4-.4-.8 0-1.2.3-1.2.8 0 1.2 3 .3 3 2.1 0 .8-.7 1.3-1.9 1.3-.6.1-1.3-.2-1.7-.5z">
			</path>
		</g>
	</g>
</svg>
