<svg version="1.0" id="Camada_1" x="0" y="0" viewBox="0 0 120 120" xmlns="http://www.w3.org/2000/svg" width="120" height="120">
	<g id="_100_milhões" transform="translate(2 2)">
		<g id="BG" fill="none" stroke-miterlimit="10">
			<circle id="Oval" cx="57.8" cy="57.6" r="58" opacity=".4" stroke="#d0edfc" stroke-width="4">
			</circle>
			<circle id="Oval-2" cx="57.2" cy="57.7" r="46" stroke="#1dacfc" stroke-dasharray="290" stroke-width="6" stroke-dashoffset="0">
			</circle>
		</g>
		<g id="Text">
			<g class="st2">
				<path class="st3" d="M47.8 48.7v6.7h-.7v-6.1h-1.6v-.6h2.3zM49.4 52c0-2.1 1.1-3.4 2.7-3.4s2.7 1.3 2.7 3.4c0 2.1-1.1 3.4-2.7 3.4s-2.7-1.2-2.7-3.4zm4.7 0c0-1.8-.8-2.8-2-2.8s-2 1-2 2.8.8 2.8 2 2.8 2-1 2-2.8zM55.8 52c0-2.1 1.1-3.4 2.7-3.4 1.5 0 2.7 1.3 2.7 3.4 0 2.1-1.1 3.4-2.7 3.4s-2.7-1.2-2.7-3.4zm4.6 0c0-1.8-.8-2.8-2-2.8s-2 1-2 2.8.8 2.8 2 2.8 2-1 2-2.8zM62.1 52c0-2.1 1.1-3.4 2.7-3.4 1.5 0 2.7 1.3 2.7 3.4 0 2.1-1.1 3.4-2.7 3.4s-2.7-1.2-2.7-3.4zm4.6 0c0-1.8-.8-2.8-2-2.8s-2 1-2 2.8.8 2.8 2 2.8 2-1 2-2.8z">
				</path>
			</g>
			<g class="st2">
				<path class="st3" d="M48.9 60.3V67h-.7v-5.3l-2.6 4.5h-.3l-2.6-4.5V67H42v-6.7h.6l2.9 5 2.9-5h.5zM54.8 63.9V67h-.6v-.8c-.3.5-.9.8-1.7.8-1.1 0-1.8-.6-1.8-1.5 0-.8.5-1.4 1.9-1.4h1.6v-.3c0-.9-.5-1.3-1.4-1.3-.6 0-1.3.2-1.7.6l-.3-.5c.5-.4 1.3-.7 2-.7 1.2.1 2 .7 2 2zm-.7 1.6v-.8h-1.6c-1 0-1.3.4-1.3.9 0 .6.5.9 1.3.9s1.3-.3 1.6-1zM59.2 62v.7H59c-1.1 0-1.7.7-1.7 1.9V67h-.7v-5h.6v1c.4-.7 1-1 2-1zM59.8 64.5c0-1.5 1.1-2.6 2.6-2.6.8 0 1.6.3 2 1l-.5.3c-.3-.5-.9-.7-1.5-.7-1.1 0-1.9.8-1.9 2s.8 2 1.9 2c.6 0 1.1-.2 1.5-.7l.5.3c-.4.6-1.1 1-2 1-1.5 0-2.6-1.1-2.6-2.6zM69.5 63.9V67h-.6v-.8c-.3.5-.9.8-1.7.8-1.1 0-1.8-.6-1.8-1.5 0-.8.5-1.4 1.9-1.4h1.6v-.3c0-.9-.5-1.3-1.4-1.3-.6 0-1.3.2-1.7.6l-.3-.5c.5-.4 1.3-.7 2-.7 1.3.1 2 .7 2 2zm-.7 1.6v-.8h-1.6c-1 0-1.3.4-1.3.9 0 .6.5.9 1.3.9s1.4-.3 1.6-1zM70.7 66.4l.3-.5c.4.3 1.1.6 1.8.6 1 0 1.3-.3 1.3-.8 0-1.3-3.3-.3-3.3-2.3 0-.8.7-1.4 2-1.4.6 0 1.4.2 1.8.5l-.3.5c-.4-.3-1-.4-1.5-.4-.9 0-1.3.4-1.3.8 0 1.4 3.3.3 3.3 2.3 0 .9-.8 1.4-2.1 1.4-.8 0-1.6-.3-2-.7z">
				</path>
			</g>
		</g>
	</g>
</svg>
